inDegrees=yes
name=ik_S53_A07_T02
DataType=double
version=3
OpenSimVersion=4.3-2021-08-27-4bc7ad9
endheader
time	pelvis_tilt	pelvis_list	pelvis_rotation	pelvis_tx	pelvis_ty	pelvis_tz	hip_flexion_r	hip_adduction_r	hip_rotation_r	knee_angle_r	knee_angle_r_beta	ankle_angle_r	subtalar_angle_r	mtp_angle_r	hip_flexion_l	hip_adduction_l	hip_rotation_l	knee_angle_l	knee_angle_l_beta	ankle_angle_l	subtalar_angle_l	mtp_angle_l	lumbar_extension	lumbar_bending	lumbar_rotation	arm_flex_r	arm_add_r	arm_rot_r	elbow_flex_r	pro_sup_r	wrist_flex_r	wrist_dev_r	arm_flex_l	arm_add_l	arm_rot_l	elbow_flex_l	pro_sup_l	wrist_flex_l	wrist_dev_l
0	0	0	0	0	0.9399999999999999	0	0	0	0	0	0	0	0	0	0	0	0	0	0	0	0	0	0	0	0	0	0	0	0	89.99999999963507	0	0	0	0	0	0	89.99999999869995	0	0
0.01666666666666667	-6.319434299609441	-4.387270412196139	29.48196004893662	0	0.9399999999999999	0	3.101699506099999	-1.450288247737074	-1.043695336353832	4.743082570751159	0.08278240755356461	0	0	0	3.101699506099999	-1.450288247737074	-1.043695336353832	4.743082570751159	0.08278240755356461	0	0	0	-3.821043973321742	-0.9754901048415615	7.97029031500332	29.80669940202517	-7.196930687997459	-5.993150034361657	56.1720485603707	139.7006449899509	0	0	34.96445057107039	-11.22814498121375	4.577327104406583	36.69486447905914	111.6570579088226	0	0
0.03333333333333333	-6.181454737627588	-4.24711652673036	29.35277142117868	0	0.9399999999999999	0	26.54939153169859	-12.06181087620319	-8.281673482743781	41.54499146813804	0.7250968888319617	0	0	0	26.54939153169859	-12.06181087620319	-8.281673482743781	41.54499146813804	0.7250968888319617	0	0	0	-4.045486479671321	-1.036383644123843	8.0954048212818	29.85175446907374	-7.183500278529071	-5.99532958061457	56.17359137855168	139.7195217113763	0	0	34.99831821129336	-11.22920259812959	4.576295999810453	36.68958396646598	111.6547527144748	0	0
0.05	-6.181107513613892	-4.240422773416664	29.34733287877812	0	0.9399999999999999	0	26.57863543469765	-12.05123677918798	-8.287395460502493	41.55919038301843	0.7253447066468349	0	0	0	26.57863543469765	-12.05123677918798	-8.287395460502493	41.55919038301843	0.7253447066468349	0	0	0	-4.045516300485576	-1.030462776912543	8.087275807485881	29.86454437867697	-7.198929458102238	-5.984153446935345	56.17567911684307	139.7030319929938	0	0	34.98242366490769	-11.23604875775712	4.592150705826362	36.68874832092472	111.6296101394301	0	0
0.06666666666666667	-6.169699939498527	-4.230851184690139	29.3366725360859	0	0.9399999999999999	0	26.59552164777256	-12.04873762172961	-8.289710488292778	41.56856176564769	0.7255082681291798	0	0	0	26.59552164777256	-12.04873762172961	-8.289710488292778	41.56856176564769	0.7255082681291798	0	0	0	-4.033108233759878	-1.027687396143638	8.084510854706208	29.834566434416	-7.177389280623195	-5.978536766087129	56.15572225027999	139.71393346567	0	0	34.9791902662423	-11.22718675167596	4.572531362396146	36.65394328530615	111.6543644140128	0	0
0.08333333333333333	-6.168915271026497	-4.229600685650461	29.33595285974086	0	0.9399999999999999	0	26.60893552780663	-12.04438136342137	-8.292193230955863	41.57530281328424	0.7256259216054712	0	0	0	26.60893552780663	-12.04438136342137	-8.292193230955863	41.57530281328424	0.7256259216054712	0	0	0	-4.033359404431336	-1.027134078002159	8.083691559991365	29.83561924894945	-7.173964504625594	-5.993514655337734	56.15608729571523	139.7238795333657	0	0	34.9810184491209	-11.23113077970319	4.557437927031668	36.64850781980621	111.68544248617	0	0
0.09999999999999999	-6.175443746177746	-4.228153766547897	29.33237961192347	0	0.9399999999999999	0	26.63618773222084	-12.0341074185868	-8.297637412895478	41.58842645992264	0.7258549724491795	0	0	0	26.63618773222084	-12.0341074185868	-8.297637412895478	41.58842645992264	0.7258549724491795	0	0	0	-4.041628622236387	-1.022567276687823	8.078140137160309	29.843919460521	-7.166524585448116	-6.001837282465769	56.18246021415383	139.7228192410037	0	0	34.98289055598827	-11.22872787739678	4.550743854959598	36.65583687956157	111.704653761905	0	0
0.1166666666666667	-6.180835423477726	-4.227393347242382	29.32326842039685	0	0.9399999999999999	0	26.66039669213193	-12.02612073513704	-8.302167168866669	41.60041059351839	0.7260641350384244	0	0	0	26.66039669213193	-12.02612073513704	-8.302167168866669	41.60041059351839	0.7260641350384244	0	0	0	-4.049175708116	-1.018710401235304	8.070100379122669	29.85594738308683	-7.169454091403434	-5.988855897306124	56.19369906134841	139.7392999679604	0	0	34.9840580462568	-11.23937839750264	4.570404919172899	36.65722395899854	111.7071700762897	0	0
0.1333333333333333	-6.181809344360504	-4.213062692686867	29.31637348781068	0	0.9399999999999999	0	26.67626791039832	-12.01956169870476	-8.305503007959166	41.60795016047247	0.7261957253059476	0	0	0	26.67626791039832	-12.01956169870476	-8.305503007959166	41.60795016047247	0.7261957253059476	0	0	0	-4.044889702363459	-1.005720268987994	8.067476460581519	29.84758113798286	-7.163804537459755	-5.994554371075502	56.18313217821401	139.7552506655082	0	0	34.97669356891553	-11.22127296668192	4.582086795815909	36.64739644840004	111.7121325170953	0	0
0.15	-6.191704034259046	-4.210132842541925	29.30846804614645	0	0.9399999999999999	0	26.69590576386571	-12.01368900519507	-8.309017638480451	41.61789849489048	0.7263693564966314	0	0	0	26.69590576386571	-12.01368900519507	-8.309017638480451	41.61789849489048	0.7263693564966314	0	0	0	-4.054683362755716	-0.997956188445252	8.062534629378478	29.85204480862363	-7.151426914183799	-6.007055233436432	56.18858607884367	139.7890842827248	0	0	34.98871955696907	-11.21305421349612	4.56219976506345	36.64579701378167	111.7083959623119	0	0
0.1666666666666667	-6.197356217087361	-4.207810348924602	29.30125845841753	0	0.9399999999999999	0	26.71283878034641	-12.00759550093805	-8.312327615323376	41.62619060479663	0.726514081116431	0	0	0	26.71283878034641	-12.00759550093805	-8.312327615323376	41.62619060479663	0.726514081116431	0	0	0	-4.060714274175391	-0.9927913828576271	8.056943935608446	29.8596480941132	-7.127093833911472	-6.009537912620092	56.18733449226405	139.8193940161155	0	0	34.99582405169172	-11.21627759081507	4.558278727953361	36.64678503874367	111.7121927666411	0	0
0.1833333333333333	-6.189328909804185	-4.202693454662072	29.29707408479264	0	0.9399999999999999	0	26.71670594461983	-12.00529840791671	-8.313324819610719	41.62787259912028	0.7265434374553784	0	0	0	26.71670594461983	-12.00529840791671	-8.313324819610719	41.62787259912028	0.7265434374553784	0	0	0	-4.051530520102919	-0.9923630421212597	8.057084385804979	29.84970797288218	-7.118022994346238	-6.014726524776904	56.18255565150676	139.8205986847946	0	0	34.99044748624814	-11.22566823984571	4.546127155081918	36.63265481054987	111.7569699289555	0	0
0.2	-6.184994614061421	-4.20352710863248	29.29077611762681	0	0.9399999999999999	0	26.71788125421255	-12.00391692865083	-8.313811608359694	41.62827232228686	0.7265504139407318	0	0	0	26.71788125421255	-12.00391692865083	-8.313811608359694	41.62827232228686	0.7265504139407318	0	0	0	-4.048043596702802	-0.9955025562279259	8.059698720703979	29.85820290373231	-7.108629022656802	-6.026729633054215	56.18275909990843	139.8551746361495	0	0	34.97609696667451	-11.23478315434208	4.524320450232196	36.63154544087132	111.8099022061015	0	0
0.2166666666666666	-6.193405745967287	-4.200297418091343	29.28416484579698	0	0.9399999999999999	0	26.74625923832991	-11.99488826954548	-8.31901680140977	41.64233025866234	0.7267957712165198	0	0	0	26.74625923832991	-11.99488826954548	-8.31901680140977	41.64233025866234	0.7267957712165198	0	0	0	-4.057394411259717	-0.9882640671987596	8.051884160625404	29.87323583943518	-7.117808930210868	-6.016016470769829	56.20991245751377	139.8219791013407	0	0	34.96863893911306	-11.23617838838117	4.525363193046513	36.65530781433257	111.790825273517	0	0
0.2333333333333333	-6.195694865820981	-4.195584168731376	29.27797772254673	0	0.9399999999999999	0	26.76755865213276	-11.98697700180152	-8.323225099602613	41.6525653431228	0.7269744071395745	0	0	0	26.76755865213276	-11.98697700180152	-8.323225099602613	41.6525653431228	0.7269744071395745	0	0	0	-4.059827946005762	-0.9825741574488758	8.044256731516993	29.86826069785934	-7.130621457068836	-5.996242808636135	56.21812925947111	139.79608879323	0	0	34.97476481221486	-11.24098048464216	4.525953205433541	36.68236038329824	111.7652172855044	0	0
0.25	-6.193714523772845	-4.181318165469735	29.27566609925732	0	0.9399999999999999	0	26.78298792951769	-11.98414747045077	-8.325483519982551	41.66096906267516	0.7271210797151774	0	0	0	26.78298792951769	-11.98414747045077	-8.325483519982551	41.66096906267516	0.7271210797151774	0	0	0	-4.053956598506077	-0.9698350952765765	8.029915946201923	29.8665007552131	-7.114725096584716	-5.98124366016394	56.21276764223704	139.8205759194908	0	0	34.96536707370618	-11.22982205770579	4.496857775480271	36.64599256643849	111.7489256282185	0	0
0.2666666666666667	-6.197659770896562	-4.179770289967198	29.27698978563483	0	0.9399999999999999	0	26.81499325227357	-11.97519339346907	-8.331030025898826	41.67724510330518	0.7274051502133597	0	0	0	26.81499325227357	-11.97519339346907	-8.331030025898826	41.67724510330518	0.7274051502133597	0	0	0	-4.060846517235827	-0.966231455101272	8.021586207475831	29.87729911824644	-7.112712010660246	-5.974897892923468	56.2143253040533	139.8113942269485	0	0	34.97120992283921	-11.22757820571429	4.486535738010316	36.64727818102958	111.7507498326245	0	0
0.2833333333333333	-6.201471192942508	-4.183390415360808	29.2702828052041	0	0.9399999999999999	0	26.8413358458817	-11.96808636751483	-8.335514607773559	41.69069833501515	0.7276399534017323	0	0	0	26.8413358458817	-11.96808636751483	-8.335514607773559	41.69069833501515	0.7276399534017323	0	0	0	-4.069215523494033	-0.9675286735738884	8.016106386345013	29.89527298849662	-7.106428834386353	-5.985310230134935	56.21381632659779	139.7861488049904	0	0	34.99262209635326	-11.22934663561655	4.47788215924979	36.63726606207113	111.7616427795885	0	0
0.3	-6.195019642869307	-4.174876990834329	29.27779416834258	0	0.9399999999999999	0	26.87792484158345	-11.95921998654345	-8.341480881980482	41.70975688404122	0.72797258783289	0	0	0	26.87792484158345	-11.95921998654345	-8.341480881980482	41.70975688404122	0.72797258783289	0	0	0	-4.064505421715795	-0.9625479919035036	8.002898341511065	29.8773050888355	-7.108662240327143	-5.985097549419984	56.20752137135172	139.7879799367147	0	0	34.98285002331731	-11.23905474075779	4.458469854649876	36.62330436909991	111.748043714146	0	0
0.3166666666666667	-6.197468953470255	-4.177472472629192	29.28664194131294	0	0.9399999999999999	0	26.90174351248595	-11.9526161948333	-8.345578062815937	41.72194227498034	0.7281852630254202	0	0	0	26.90174351248595	-11.9526161948333	-8.345578062815937	41.72194227498034	0.7281852630254202	0	0	0	-4.070907442521797	-0.9635658412701725	7.997734787040113	29.88635008889253	-7.10932327030032	-5.986782930112384	56.21706641804125	139.7799555317842	0	0	34.98658280539738	-11.24123371320495	4.447364248565886	36.62476183907678	111.7648979441331	0	0
0.3333333333333333	-6.197016954511793	-4.176424318897153	29.29022211109501	0	0.9399999999999999	0	26.92822441109252	-11.9460654692305	-8.349918061706312	41.73564335414807	0.7284243919679737	0	0	0	26.92822441109252	-11.9460654692305	-8.349918061706312	41.73564335414807	0.7284243919679737	0	0	0	-4.073511112172757	-0.9626417172202356	7.991313633458522	29.88653734917063	-7.112165787318459	-5.990352981522099	56.21579537343436	139.7655949269344	0	0	34.99229881064763	-11.24784779043803	4.43434823127611	36.63446050847016	111.7789595855381	0	0
